<?xml version="1.0" encoding="utf-8"?>
<!-- Generator: Adobe Illustrator 19.2.0, SVG Export Plug-In . SVG Version: 6.00 Build 0)  -->
<svg version="1.1"
	 id="svg2" inkscape:version="0.91 r13725" sodipodi:docname="led_boom.svg" xmlns:cc="http://creativecommons.org/ns#" xmlns:dc="http://purl.org/dc/elements/1.1/" xmlns:inkscape="http://www.inkscape.org/namespaces/inkscape" xmlns:rdf="http://www.w3.org/1999/02/22-rdf-syntax-ns#" xmlns:sodipodi="http://sodipodi.sourceforge.net/DTD/sodipodi-0.dtd" xmlns:svg="http://www.w3.org/2000/svg"
	 xmlns="http://www.w3.org/2000/svg" xmlns:xlink="http://www.w3.org/1999/xlink" x="0px" y="0px" viewBox="0 0 578.3 68"
	 style="enable-background:new 0 0 578.3 68;" xml:space="preserve">
<style type="text/css">
	.st0{fill:none;stroke:#000000;stroke-width:0.35;}
</style>
<sodipodi:namedview  bordercolor="#666666" borderopacity="1" gridtolerance="10" guidetolerance="10" id="namedview16" inkscape:current-layer="Sketch" inkscape:cx="177.07369" inkscape:cy="-4.6156077" inkscape:pageopacity="0" inkscape:pageshadow="2" inkscape:window-height="751" inkscape:window-maximized="1" inkscape:window-width="1280" inkscape:window-x="0" inkscape:window-y="1" inkscape:zoom="2.4260387" objecttolerance="10" pagecolor="#ffffff" showgrid="false">
	</sodipodi:namedview>
<g id="Sketch" transform="translate(102.000000,12.000000) scale(1,-1)">
	<path id="circle12" inkscape:connector-curvature="0" sodipodi:nodetypes="ssssssssssssssssssssssssssssssssss" class="st0" d="
		M-96.3-7.8C-96.3,0-90,6.3-82.2,6.3h538.6c7.8,0,14.2-6.3,14.2-14.2v-28.3c0-7.8-6.3-14.2-14.2-14.2H-82.2
		c-7.8,0-14.2,6.3-14.2,14.2V-7.8z M102.1-17.7H-68c-5.7,0-5.7-8.6,0-8.6h170.1C107.8-26.3,107.8-17.7,102.1-17.7z M195.6-22
		c0,4.7-3.8,8.5-8.5,8.5s-8.5-3.8-8.5-8.5s3.8-8.5,8.5-8.5S195.6-26.7,195.6-22z M272.2-26.3h170.1c5.7,0,5.7,8.6,0,8.6H272.2
		C266.4-17.7,266.4-26.3,272.2-26.3z M163-22c0,2.3-1.9,4.3-4.3,4.3s-4.3-1.9-4.3-4.3s1.9-4.3,4.3-4.3S163-24.4,163-22z M219.7-22
		c0,2.3-1.9,4.3-4.3,4.3s-4.3-1.9-4.3-4.3s1.9-4.3,4.3-4.3S219.7-24.4,219.7-22z"/>
	<title  id="title14">Sketch</title>
</g>
</svg>
